<?xml version="1.0" encoding="UTF-8" standalone="no"?>
<svg
   xmlns:dc="http://purl.org/dc/elements/1.1/"
   xmlns:cc="http://creativecommons.org/ns#"
   xmlns:rdf="http://www.w3.org/1999/02/22-rdf-syntax-ns#"
   xmlns:svg="http://www.w3.org/2000/svg"
   xmlns="http://www.w3.org/2000/svg"
   xmlns:sodipodi="http://sodipodi.sourceforge.net/DTD/sodipodi-0.dtd"
   xmlns:inkscape="http://www.inkscape.org/namespaces/inkscape"
   height="24px"
   viewBox="0 -960 960 960"
   width="24px"
   fill="#e8eaed"
   version="1.1"
   id="svg22"
   sodipodi:docname="restore.svg"
   inkscape:version="0.92.5 (2060ec1f9f, 2020-04-08)">
  <metadata
     id="metadata28">
    <rdf:RDF>
      <cc:Work
         rdf:about="">
        <dc:format>image/svg+xml</dc:format>
        <dc:type
           rdf:resource="http://purl.org/dc/dcmitype/StillImage" />
        <dc:title></dc:title>
      </cc:Work>
    </rdf:RDF>
  </metadata>
  <defs
     id="defs26" />
  <sodipodi:namedview
     pagecolor="#ffffff"
     bordercolor="#666666"
     borderopacity="1"
     objecttolerance="10"
     gridtolerance="10"
     guidetolerance="10"
     inkscape:pageopacity="0"
     inkscape:pageshadow="2"
     inkscape:window-width="1920"
     inkscape:window-height="991"
     id="namedview24"
     showgrid="false"
     inkscape:zoom="33.25"
     inkscape:cx="12"
     inkscape:cy="14.406015"
     inkscape:window-x="-9"
     inkscape:window-y="-9"
     inkscape:window-maximized="1"
     inkscape:current-layer="svg22" />
  <path
     d="m 700,-655.38 c 0,-18.41333 -6.16667,-33.78667 -18.5,-46.12 -12.33333,-12.33333 -27.70667,-18.5 -46.12,-18.5 H 204.62 c -18.41333,0 -33.78667,6.16667 -46.12,18.5 -12.33333,12.33333 -18.5,27.70667 -18.5,46.12 v 430.76 c 0,18.41333 6.16667,33.78667 18.5,46.12 12.33333,12.33333 27.70667,18.5 46.12,18.5 h 430.76 c 18.41333,0 33.78667,-6.16667 46.12,-18.5 12.33333,-12.33333 18.5,-27.70667 18.5,-46.12 z m -40,0 v 430.76 c 0,6.16 -2.56333,11.80333 -7.69,16.93 -5.12667,5.12667 -10.77,7.69 -16.93,7.69 H 204.62 c -6.16,0 -11.80333,-2.56333 -16.93,-7.69 -5.12667,-5.12667 -7.69,-10.77 -7.69,-16.93 v -430.76 c 0,-6.16 2.56333,-11.80333 7.69,-16.93 5.12667,-5.12667 10.77,-7.69 16.93,-7.69 h 430.76 c 6.16,0 11.80333,2.56333 16.93,7.69 5.12667,5.12667 7.69,10.77 7.69,16.93 z m 160,-120 c 0,-18.41333 -6.16667,-33.78667 -18.5,-46.12 -12.33333,-12.33333 -27.70333,-18.5 -46.11,-18.5 H 284.62 v 40 h 470.77 c 6.15333,0 11.79333,2.56333 16.92,7.69 5.12667,5.12667 7.69,10.77 7.69,16.93 v 470.76 h 40 z M 180,-680 h 480 z"
     id="path20"
     inkscape:connector-curvature="0"
     sodipodi:nodetypes="sssssssssssssssssssssssssssssccsssccsccc" />
</svg>
